<?xml version="1.0" standalone="no"?><!DOCTYPE svg PUBLIC "-//W3C//DTD SVG 1.1//EN" "http://www.w3.org/Graphics/SVG/1.1/DTD/svg11.dtd"><svg t="1623553178521" class="icon" viewBox="0 0 1024 1024" version="1.1" xmlns="http://www.w3.org/2000/svg" p-id="33009" xmlns:xlink="http://www.w3.org/1999/xlink" width="200" height="200"><defs><style type="text/css"></style></defs><path d="M815.5 309.6c-12.6-5-48.6 9-59.5 20.9-15.3 16.8-16.3 35.1-5.8 59.9-23.3-15.7-43.6-16.2-64.6-13.3-16.8 2.3-33.6 3.8-50.4 5.4-15 1.4-21.5-1.6-13.9-19 5.3-12.1 15.5-21.5 20.4-36.6-16.1 2-20.1 13.6-26.2 22.4-6.1 8.7-12 23.6-22.4 19.5-12.2-4.8-28.4-10.9-31.4-27.5-3.5-19.7-16.1-34.6-24.2-51.9-1.9-4.1-3.1-10.1-8.9-8.7-6.1 1.5-8.2 6.9-5.6 12.8 7.4 16.7-4.2 15.7-14.6 16-17.3 0.6-32.1-8.8-51.2-13.8 11.7 25.7-3 23.4-19.7 23.4-16.2 0.1-29.4-3.7-40.6-15.1-9.4-5.2-14.3-14.2-19.7-22.8-2.1-6.3-4.3-12.4-12.3-14.2-2.8 7.8 1.9 11.2 7.1 14.5 5.1 9.1 10.2 18.3 15.3 27.4 0.9 2 1.3 4.4 2.7 6 19.6 22.7 19.6 22.6-5.3 40.6-2.3 1.7-5.1 3.9-5.9 6.4-8.2 25.1-28.1 29.3-50.6 29.1-8.5-4.9-17.3-4.6-26.5-0.3 7.1 1.9 14.1 3.7 21.2 5.6 7.4 3.8 14.7 7.5 29.6 15.2-27.2 2.6-25.2 43.1-57.4 27-0.8-0.4-3.6 0.8-3.7 1.5-2.5 26.3-15.6 4.8-22.6 4.1-8.7-0.9-16.9-6.8-26.5-6.1-4.7 0.3-11-0.3-10.7-5.7 1.3-23-15-35.2-28.2-50-13.4-14.9-29.4-18.2-47-12.5-12.4 4-23.8 11.1-35.6 16.8-7.2-7.1-15-12-25.7-7.5 1.9 9.1 14.7 3.9 16.2 13-2 18.1-18.4 31.4-12.1 53.5 7 24.7 19.3 38.1 42 51.1 23.6 13.6 49.8 5.3 57.8-3.2 21.4-22.6 43.5-21.3 68.7-18.5 32.5 3.7 43 18.8 37.9 51.9-2.1 13.9-9.3 16.3-20.6 13.5-28-7.1-50.2 1.5-64.9 25-10.1 16.3-7.7 34.4 1 47.7 9.1 13.9 20.3 28.4 42.4 29.2 26.2 0.9 42.3-11.5 54-31.3 6.4-10.9 13.4-10.5 19.8-4.3 11.1 10.9 24 21.3 26.3 38.4-4.6 10.7-9.3 21.4-7.6 33.6-7.2 3.9-5.6 11.8-11.9 19.4 16.9-1.4 14.6-11.6 15.7-19.5 8.6-7.3 2.6-19.7 9.6-27.5 23.2-8.2 28.1-4.8 24.5 17.4 24.5 1.1 24.5 1 46.2 25.4 2.7 3.1 4.7 2.9 7.5 1 10.2-7.1 12.1 2.4 14.2 8 7.3 19.8 11.5 40 1.6 63.5-3.4-6.7-5.6-10.6-7.5-14.7-5-11.1-12.4-17.9-25.3-13.6-12.4 4.2-14.8 14.9-14.3 26 0.8 17.8 24.3 36 39.4 27.7 26.7-14.6 19.7 6.7 19.6 17.3-0.1 15.8-5.7 30.2-21.6 37.8-4.6 2.2-12 2.9-10.5 10 1.4 6.7 8.5 6.1 13.5 5.3 12.3-2 17.9 4.9 22.8 14.6 5.3 10.4-0.5 16.4-9 22.7 17.4-1.3 29.5 0 34.3 19.4 1.9 7.6 15.8 13.7 25.4 12.9 14.5-1.2 16.1 32.2 35.7 12.2 0.6 2.2 1.5 4.3 1.9 6.5 0.6 3.8 0.3 8.3 5.1 9.1 6.4 1.1 7.5-4.4 7.9-8.8 1-10.1 8.4-9.9 15.2-9.6 11.4 0.6 22.8 1.8 34.2 3.4 3.5 0.5 10.1 3.3 9.8 0.4-2.5-22.5 21.9-16.9 29.3-28.9 8.4-13.6 18.3-26.4 27.5-39.5 0.3-0.5 0.7-0.8 1.2-1.1-0.4 0.4-0.8 0.7-1.2 1.1 4.7-0.1 9.4-0.1 14.1-0.2 7 2.2 13.1 2.7 15.5-6.5 0.6-2.4 4.1-5.2-0.3-6.5-4-1.2-8.9-1.9-10.9 3.9-3.1 0.4-6.2 0.7-9.3 1.1-13.2-3.4-16.1-11-8-21.8 3.4-4.6 7.3-9.4 3.5-14.2-10.1-12.7 2.2-19.5 7.3-26.3-3.7-8.5-16.4-5.4-14.8-11.6 4.4-17.5-6.6-25.4-16.9-34.8-19.9-18.1-31.5-46.5-62.9-50.3l-4.5-7.2c24.1 1 32.2-9.3 27.4-33.5-2.3-11.4-7.1-30.1 17.5-27.2 5.5 0.7 3.9-7.2 5-7.6 13.2-5.4 0.4-17 6.1-23.7 14.4-17 32.8-14 51-9.1 13.3 3.6 26.1 9.8 39.5 12 9.5 1.5 23.6 7.1 28.4-6 5-13.6-5.2-23.1-16.6-29.4-6.7-3.7-14-6.2-21-9.3-9.8-4.4-19.8-8.3-29-13.6-6.9-4-11-11-10.2-19.4 1-9.5 8.6-11.8 16.4-13.4 4.3-0.9 8.6-1.7 12.9-2.5-2-7.9-7.6-7.8-13.1-8-6.1-0.2-14 0.4-15.5-6.6-1.4-6.5 4.8-10.8 10.9-13.1 14.4-5.2 12-23.5 24.4-30.9 5.3-3.2-0.1-8.2-4.5-9.6-20.4-6.4-10.2-16.1-4-27 11-19.4 29.4-16.2 44.8-13.1 44.2 9 59.3-0.3 65.6-44.9 2.8-20-13-49.8-30.1-56.7zM323.6 815.6c0.6-2.7 6-7.9-2.1-7.5-16.6 0.9-22.1-16.3-36.9-21.5-20.8-7.3-37.4-11.5-59.2-4.6-23.7 7.5-32.1 37.7-67.3 34.1 19.9 11.5 22.2 21.5 15.7 36.2-6.5 14.6 10.7 56.5 25.8 60 16.6 3.8 12.6 13.9 12.5 24 16.5-6.1 16.5-6 36.1 1.4 5 1.9 11.9 5 15.1 0.2 7.1-10.5 29.5 5.2 28.8-17.6-0.1-2.1 5-0.2 7.7 1.6 7.4 4.9 9.1 0.7 9.3-6 0.1-3.6-0.6-10.6 2.6-9.7 25.3 7.5 6.8-12.2 10.2-17.8 5.2-8.6-3.9-23.2 9.8-30.4 5.6 0.9 11.1 2.4 19.2-1.8-6.1-2.4-10.4-4.2-14.7-5.9-11-9.1-15.9-20.4-12.6-34.7zM876.9 169.8c-20.6-11.6-47.5-10.9-61.2 1.6-21 19.2-24.1 36.1-14.5 62.3 4.3 11.8 16.2 16 21.6 27.2-2.6 1.9-5.8 3.8-8.4 6.1-7.5 6.6-17.3 15-9 24.5 7.7 8.7 18.5 2.4 26.3-4.5 4.5-4.1 8.3-9 12.4-13.5 6.1-6.9 12.1-14.2 21.8-15.9 36.2-6.3 31.9-36.7 34-61 1-12.1-11.9-20.6-23-26.8zM502.3 193.1c13-0.5 42.7-35.5 42.2-49.8-2.3-31.2-22.6-55-54.9-55.8-21.7-0.6-53.5 33.5-54.3 56.9-0.8 23.9 35.1 50 67 48.7zM106.1 914.3c-9.5-5.1-18.8 3.6-17.4 13.8 1.3 9.8 7 22.7 18.1 23.1 18.3 0.5 15.1-19.7 23.4-29.5-3.5-16.8-16.1-3.1-24.1-7.4zM748.1 122.9c9.3-2.7 17.1-7.9 18.3-18.2 0.7-6.6-4.7-6.3-9.6-5.5-10.7 1.8-18.3 7.2-21.7 17.8 2.4 6.2 7.4 7.5 13 5.9z" p-id="33010"></path><path d="M661.1 647.6c9.4 9 17.9 14.8 29.6 13.6-8.6-5.3-12.4-21-29.6-13.6zM720 807.3h36.9c-20.7-10.3-20.7-10.3-36.9 0zM927 505.4c-4.9 0.5-9.6 2.3-10.1 7.6-0.6 6.2 4.8 7.3 9.2 6.7 4.4-0.6 9.6-2.7 9.3-8.4-0.2-4.5-4.4-5.7-8.4-5.9zM401.7 851c-9.6-1.3-17.7-4.1-28.3 8.6 12.3-3.3 21.7 2.9 28.3-8.6zM376.3 872c9.7 1.7 19.5 3.4 33.8 5.9-11.9-13.2-21.9-10.4-33.8-5.9zM719.8 946.6c-2.9-1-6.3 0.1-6.5 3.9-0.3 5.3 4.3 5 7.9 5.7 1.9-1.3 7.1 0.4 5-4.6-0.9-2.2-3.9-4.1-6.4-5zM250.6 376.1c-3.3-4.7-7.1-8.1-12.9-5.7-1 0.4-1.8 4.6-1.1 5.2 4.2 3.6 9.1 3.8 14 0.5zM445.2 73.9c2.8 0.2 6.2 0 6.2-3.8 0-4.5-3.5-5.9-5.2-6-5.5-0.3-8 1.1-8.3 4.4-0.5 5.3 3.8 5.2 7.3 5.4zM430.5 721.3c-4.2 3-13.7 0.9-10.1 12.4 5.3-2.7 9.7-5.6 10.1-12.4z" p-id="33011"></path></svg>