<?xml version="1.0" standalone="no"?><!DOCTYPE svg PUBLIC "-//W3C//DTD SVG 1.1//EN" "http://www.w3.org/Graphics/SVG/1.1/DTD/svg11.dtd"><svg t="1623553096873" class="icon" viewBox="0 0 1024 1024" version="1.1" xmlns="http://www.w3.org/2000/svg" p-id="22750" xmlns:xlink="http://www.w3.org/1999/xlink" width="200" height="200"><defs><style type="text/css"></style></defs><path d="M512.2 512m-448 0a448 448 0 1 0 896 0 448 448 0 1 0-896 0Z" fill="#FFFFFF" p-id="22751"></path><path d="M603.1 260c1.2-4.5 2-8.6 3.3-12.6 2.6-7.9 3.6-15.5-0.2-23.4-10.9-22.7-29.3-35-53.6-38-11.7-1.5-23.6-0.5-35.5-0.3-17.3 0.3-34.5 0.6-51.8 1.5-2.8 0.1-6.5 2.6-8 5.1-10 16.6-19.2 33.6-29.2 50.1-5.5 9-5.9 14.1-20.1 23.8-0.9 0.6-1.7 2.3-2 3.8-3 14.3-12.4 25.4-22.3 36.1-2.7 2.9-3.6 7.7-5.1 11.8-3.5 9.7-6 19.9-10.3 29.2-9.5 20.4-19.7 40.4-29.8 60.4-2.2 4.3-5.4 8.2-8.1 12.2-3 4.5-6.4 8.9-9.1 13.6-14 24.9-28 49.7-41.7 74.8-12.3 22.5-24 45.4-36.1 68-7.3 13.7-14.7 27.5-22.3 41-8.3 14.8-17 29.4-25.3 44.3-3.3 5.9-3.3 11.8 3.5 15.4 7.8 4.1 16.8 6.5 23.5 11.9 13.2 10.5 29.1 13.5 44.3 18.2 6.8 2.1 7.3 5.1 5.8 11.2-4.2 16.6-7.7 33.4-11.3 49 20.8 15.8 45.2 12.5 67.9 15.5 26.8 3.6 54 3.6 81.1 5.3 25.6 1.7 51.2 4 76.8 5.5 23.3 1.3 46.7 1.9 70.1 2.7 59.9 2 119.8 5.2 179.6-1.8 11.1-1.3 15.8-4.5 16.1-12.1 0.9-23.1 1.7-46.1 2.4-69.2 0.2-6.9 0.4-13.8 0.6-20.8 0.7-25.6 1.3-51.2 2.2-76.7 0.9-23.6 2.4-47.2 3.5-70.9 2.2-49 4.3-98.1 6.3-147.1 1.6-37.5 2.9-75 4.4-112.6 0.4-9.4 0.9-18.9 1.5-30.4-2.2 0.2-116 3.8-171.1 5.5z m-147.5 3.4c5.6-31.7 25.3-59.7 25.3-59.7s35.9-10 39.8 0-19.9 33.4-19.9 33.4-50.9 58-45.2 26.3zM304.1 740.7c1.3 0.4 1.4 0.5 2.8 0.9l3.7 1c6.4-1.2 10-0.4 13.4 3.5l13.6 3.5 16.8 8.8 0.3 0.5c0.9 0.6 1.4 1 2.1 2.2-0.2 0 0.2 0.4 0.1 0.4 2.6 1.7 4 3.1 3.7 4.2-2.4 7.1-76 0-88.8-1.8-2.6-0.4-3.4-1.8-3.1-3.8 0-0.1-0.1-0.3-0.1-0.4 0.1 0 0.1 0 0.2-0.1 0.4-1.8 1.7-3.9 3.4-6.2-0.1 0-0.1 0-0.2-0.1 0.3-0.2 0.5-0.5 0.8-0.7 2-2.6 4.8-4.7 7.2-7.2m118.8-13.7c-15.9 8.2-45.2-17-57.4-28.5l-1.5-0.6c0.1-0.2 0.2-0.4 0.2-0.6-2.7-2.6-4.3-4.2-4.3-4.2s38.3-84.8 51.6-119.3h-0.2c-0.2-0.1 0-0.3 0.5-0.6 2.8-7.2 4.4-12.1 4.2-13.4-1-7.1 113.2-123.5 114-126.1l5.2-6.1s-92 288.9-112.3 299.4z m204.5-310.3c-0.4 1.3-0.7 2.7-0.9 4-1.2 44.4-3.4 83-6.5 116.6h-0.1c-1.2 13.4-2.6 26.1-4 38l0.6 0.6c0.8 0.9 0.3 2.3-0.9 2.5-26.9 213.4-90.8 180.7-98.1 192.9-6.7 11.2-5.3-4.2-2.8-18.4-0.1-0.4-0.2-0.8-0.2-1.3-0.1-4.2 2-8.5 3.1-12.8 3.1-12.8 6-25.6 9.2-38.4 4-15.9 7.9-31.9 12.5-47.6 4.3-14.6 9.7-28.9 14.1-43.5 2.6-8.5 3.7-17.3 6.1-25.8 2.7-9.5 6.2-18.7 8.9-28.2 3.5-12 6.4-24.2 10-36.2 1-3.3 2-6.5 3-9.8 24.3-86.8 46.2-164.9 46.2-164.9 0 24.5-0.3 47.6-0.8 69.3 0.5 1.1 0.9 2.1 0.6 3zM745 758.5v-103s4.5-369 18.5-387.5L745 758.5z" fill="" p-id="22752"></path></svg>