<?xml version="1.0" standalone="no"?><!DOCTYPE svg PUBLIC "-//W3C//DTD SVG 1.1//EN" "http://www.w3.org/Graphics/SVG/1.1/DTD/svg11.dtd"><svg t="1623553083749" class="icon" viewBox="0 0 1024 1024" version="1.1" xmlns="http://www.w3.org/2000/svg" p-id="22599" xmlns:xlink="http://www.w3.org/1999/xlink" width="200" height="200"><defs><style type="text/css"></style></defs><path d="M512.2 512m-448 0a448 448 0 1 0 896 0 448 448 0 1 0-896 0Z" fill="#FFFFFF" p-id="22600"></path><path d="M659.4 348.9c-13.8 24-27.7 47.9-41.3 72-6.1 10.8-11.7 22-16.8 31.6-4.4-7.6-9.2-15.9-15-25.9-5 8.5-8.6 14.6-12.6 21.5-8.3-5.4-15.9-10.4-23.5-15.4-0.7 1-1.4 2-2.2 3 3.5 2.7 6.6 6.7 10.5 7.9 14 4.5 21.3 15.4 27.3 27.4 3.4 6.8-2.9 16.1-11.4 18.9-0.2 19.2-4.9 23.6-24.6 22.6-0.5-1.2-1.4-2.6-1.8-4-0.3-1.3-0.2-2.6-0.3-4l-2.4-0.9c-7 17.3-14 34.6-20.9 51.9-0.7-0.2-1.4-0.4-2.2-0.7 3.4-13 6.7-26 10.3-38.9 2.1-7.4 5.1-14.5 6.9-21.9 1-4.2 0.2-8.8 0.2-13.2-1.5-0.2-3-0.5-4.5-0.7-7.4 24-15.2 47.8-22.2 71.9-2.9 10-4.5 20.5-6.7 30.8-1.6 7.1-5.7 12-12.4 15.2-12.2 5.9-24.3 12.2-35.7 18-2.5-20 7.8-35.7 17.3-52.4 10.6-18.7 18.4-39 27.2-58.6 4.9-10.9 9.3-22 13.9-33 3.5-8.3 1.4-13.1-7.1-16.8-9.3-4-15.1-1.7-19.2 6-12 22.6-24.7 44.8-36.6 67.4-5.9 11.3-10.7 23.1-16.3 34.6-1.1 2.4-3.7 4-5.1 6.3-2.9 4.7-5.6 9.4-8.1 14.3-2.2 4.2-3.9 8.5-5.9 12.7-12.8 26.9-25.6 53.9-38.4 80.8-0.7 1.5-1.6 2.8-3.6 3.8 2.9-8.5 7-16.7 8.4-25.4 2.7-16.1 3.4-32.6 5.7-48.8 1-7.1 3.1-14.2 6.1-20.7 7.6-16.7 15.4-33.4 24.3-49.4 14.1-25.3 29.2-50 43.9-74.9 0.9-1.5 1.8-2.8 1.4-5.9-3.7 2.8-7.4 5.6-11.3 8.5-10.7-8.2-12.6-18.3-5.4-30.2 2.8-4.6 5.8-9.2 7.6-14.2 3.8-10.7 12.1-13.5 21.6-11.8 18 3.3 35.8 7.7 55.2 12 2.4-4.8 6.1-12 10.3-20.2-23.7-11.7-47.1-19.9-74.3-9.4 28.9-60.6 57.2-120.2 85.5-179.7h104c0.2 45.8 0.2 91.9 0.2 137.9z m-194 79.9c5 0.4 9.4 0.8 12 1 1.9-6 3.5-11.3 5.1-16.5-9.7-1.5-9.7-1.5-17.1 15.5z m113.1-12c0.8-1.3 1.6-2.6 2.5-4-6.8-4.4-13.6-8.8-20.3-13.2l-1.8 2.7c6.5 4.9 13 9.7 19.6 14.5z m-46.7 31.5c-0.6 0.7-1.1 1.4-1.7 2 8.2 5.4 16.3 10.8 24.5 16.1 0.4-0.6 0.8-1.3 1.2-1.9l-24-16.2z" fill="" p-id="22601"></path><path d="M381.1 691.8c1.5-1.1 3.1-2.1 4.6-3.2 0.4 0.3 0.7 0.7 1.1 1-2.3 2.5-4.3 5.8-7.1 7.5-23.2 14-42.8 31.5-55.9 55.7-9.9 18.2-5.6 39.6 20.6 43.7 19.5 3.1 38.6-0.4 57.4-4.7 39.6-9 79-19 118.7-27.5 27.7-5.9 55.7-6.5 83.7 0.1 20.9 5 33.5 19.5 44.8 36.1 0.7 1 0.5 2.6 1 6-2.8-2.2-4.9-3-5.2-4.3-3.1-14.2-15.2-17-26.2-19.7-26.8-6.4-54-7.2-81.1-1.8-46.5 9.3-92.7 19.7-139.3 28.5-14.9 2.8-30.6 3.9-45.7 2.3-32.2-3.3-45.7-34.1-29.6-62.1 11-19.2 25.8-34.1 43.4-47.2 5.5-4.1 9.2-11.1 12.4-17.5 14.9-29.7 29.4-59.6 43.8-89.5 1.9-4 2.8-8.4 4-12.7 1.5-5.6 3.4-10.7 10.7-12.2 2.8 5.6 0.5 9.9-2.5 14.1-3.7 5.3-8 10.3-10.9 16-13.7 27.1-27.1 54.4-40.5 81.7-1.3 2.7-2.2 5.7-3.4 8.5 0.3 0.5 0.7 0.8 1.2 1.2z" fill="" p-id="22602"></path><path d="M435.7 631.7c-14.2 15.9-28.9 32.3-43.6 48.7 12.3-18.7 24.9-37.1 43.6-48.7z" fill="" p-id="22603"></path><path d="M465.4 428.8c7.3-17 7.3-17 17.1-15.5-1.6 5.2-3.2 10.5-5.1 16.5-2.6-0.2-7-0.6-12-1zM578.5 416.8c-6.6-4.8-13.1-9.6-19.7-14.4l1.8-2.7c6.8 4.4 13.6 8.8 20.3 13.2l-2.4 3.9zM531.8 448.3c8 5.4 16 10.8 24 16.3-0.4 0.6-0.8 1.3-1.2 1.9-8.2-5.4-16.3-10.8-24.5-16.1 0.6-0.7 1.2-1.4 1.7-2.1z" fill="#FFFFFF" p-id="22604"></path></svg>