<?xml version="1.0" standalone="no"?><!DOCTYPE svg PUBLIC "-//W3C//DTD SVG 1.1//EN" "http://www.w3.org/Graphics/SVG/1.1/DTD/svg11.dtd"><svg t="1623553052405" class="icon" viewBox="0 0 1024 1024" version="1.1" xmlns="http://www.w3.org/2000/svg" p-id="21980" xmlns:xlink="http://www.w3.org/1999/xlink" width="200" height="200"><defs><style type="text/css"></style></defs><path d="M512.2 512m-448 0a448 448 0 1 0 896 0 448 448 0 1 0-896 0Z" fill="#FFFFFF" p-id="21981"></path><path d="M726.7 223.9c5.6 4.3 10.5 8 7.6 16.2-2.3 6.5-0.2 14.3 0.5 21.4 0.5 5 11 8.2 18.5 10.5 3.4 1.1 6.3 1.9 7.3 2.7-16.3-1.6-32.7-3.3-48.2-4.8 2.8 5.4 6.6 9.5 6.7 13.7 0.6 22.1 0.3 44.3 0.3 66.4 0 21.2 0 42.4-0.3 63.5-0.2 15.3-1.4 30.6-1.5 45.9-0.3 40.6-0.4 81.2-0.2 121.8 0.2 43.4 1.1 86.8 1.2 130.2 0 10.1-1.7 20.2-3.6 30.2-0.6 3-4.3 5.7-7 8.9h52.1c0.2 0.7 0.4 1.3 0.6 2-7.9 0.9-15.7 1.7-26.3 2.9 0 9.7-1.7 20.3 0.5 30.2 2 8.8-3 11.7-10.1 13.5-5.3 1.3-11.4 1-17.1 0.6-8.1-0.6-11.8-4-11.1-11.8 1-10.7 0.3-21.5 0.3-32.3-8.5-1.6-18.6-1-24.3-4.9-19.3-13.4-41.3-7.4-62-7.5-92.5-0.6-185-0.2-277.5-0.1-3.3 0-6.7-0.3-10.3-0.5v-62.7h40.8v-2.3c-2.6 0-5.3 0.1-7.9 0-18.2-0.5-25.2-10.3-21-25.6 2.3-8.3 0.3-17.6 0-26.4-0.2-5.3-0.8-10.5-1.2-15.8-0.3-3.5 0.9-9-1.3-10.3-10.9-6.5-6.4-16.7-3.3-21.9 3.2-5.3 5.3-10 4.7-15.4-0.7-6.2-2.8-12.3-4.7-19.8 4.4-3.8 6.2-9-0.1-15.6-1.7-1.8-0.9-6.4 0.6-9 2.6-4.3 5.2-7.3-0.4-11.9-2.6-2.1-3.1-7.9-1.9-11.4 5.6-16 10.5-31.8 6.8-48.8-1.5-6.9-1.2-14.7 1.3-21.3 3.4-9.1 0.2-16.2-3.3-24.3-1.7-4 0.6-9.3 1.4-14 1.8-10.8 3.7-21.5 5.9-33.7h62.1V350c-22.5 0-45.1-0.1-67.6 0.1-7.5 0.1-10.8-1-10.3-8.7 1-17.6 0.3-35.3 0.3-53.9h343.9c-4.2-21 19.4-15.3 29.2-24.3 0-7.5-0.5-16.1 0.2-24.5 0.4-5 2.9-9.8 4.4-14.7 8.4-0.1 16.8-0.1 25.3-0.1zM550.3 351.3c-1.8-0.7-1.9-0.8-2-0.8h-75.8v0.9c25.3-0.1 50.7-0.1 77.8-0.1z" fill="" p-id="21982"></path><path d="M324 282.1c-13.9-1.5-27-2.8-39.9-4.2 2.1 6.6 4.7 11.7 5.1 17 1.2 17.3 2.1 34.6 2.2 51.9 0.2 55-0.1 110 0 164.9 0.1 62.8 0.8 125.6 0.5 188.4-0.1 15.8-3.2 31.7-5 48.9 11-0.7 23.7-1.6 37.4-2.5-20.5 10.7-12.5 27-12 41.9 0.1 2.7-2.6 7.6-4.7 7.9-9.5 1.4-19.2 2-28.8 1.7-2-0.1-5.1-5.4-5.3-8.5-0.5-8.5 0.4-17 0.4-25.5 0-5.2 2.2-11.2-7.3-13.2-1.7-0.4-2.7-5.6-2.7-8.6-0.1-70.7 0.1-141.4 0.1-212.1 0.1-81.2 0.1-162.4 0.1-243.6 0-4.8-1.3-9.9 6.4-12 1.5-0.4 2.8-3.5 2.8-5.3 0.1-8.2-0.3-16.3-0.5-24.5 0-1.2-0.7-2.6-0.3-3.7 1.8-6.7 13.7-10.2 27-7.4 8.1 1.7 14.2 4.6 11.9 14.2-1.9 7.8-1.2 16.5 0.9 24.3 0.9 4.1 7.7 6.9 11.7 10z" fill="" p-id="21983"></path><path d="M550.3 351.3h-77.8v-0.9h75.8c0.1 0.1 0.3 0.2 2 0.9z" fill="#FFFFFF" p-id="21984"></path><path d="M759.6 274l0.5 476.6-14.9-57.6V537.8c14.6-49.1 0-60.9 0-60.9L759.6 274z" fill="" p-id="21985"></path></svg>